<?xml version="1.0" encoding="utf-8"?>
<!-- Generator: Adobe Illustrator 16.0.0, SVG Export Plug-In . SVG Version: 6.00 Build 0)  -->
<!DOCTYPE svg PUBLIC "-//W3C//DTD SVG 1.1//EN" "http://www.w3.org/Graphics/SVG/1.1/DTD/svg11.dtd">
<svg version="1.1" id="Layer_1" xmlns="http://www.w3.org/2000/svg" xmlns:xlink="http://www.w3.org/1999/xlink" x="0px" y="0px"
	 width="100px" height="100px" viewBox="0 0 100 100" enable-background="new 0 0 100 100" xml:space="preserve">
<g>
	<g>
		<path fill="#454545" d="M21.801,70.439h-3.962l-0.655,1.895H15.09l3.577-9.96h2.322l3.577,9.96h-2.109L21.801,70.439z
			 M19.82,64.682l-1.439,4.161h2.878L19.82,64.682z"/>
		<path fill="#454545" d="M28.997,64.312c1.24,0,2.138,0.569,2.608,1.253v-1.125h2.009v7.952c0,2.137-1.311,3.832-3.905,3.832
			c-2.223,0-3.776-1.111-3.976-2.921h1.981c0.2,0.713,0.94,1.184,1.938,1.184c1.097,0,1.952-0.629,1.952-2.095v-1.227
			c-0.47,0.685-1.368,1.297-2.608,1.297c-2.009,0-3.605-1.64-3.605-4.104C25.392,65.894,26.988,64.312,28.997,64.312z
			 M29.511,66.063c-1.069,0-2.081,0.799-2.081,2.295s1.012,2.351,2.081,2.351c1.097,0,2.094-0.825,2.094-2.321
			C31.605,66.891,30.608,66.063,29.511,66.063z"/>
		<path fill="#454545" d="M37.562,72.334h-1.995v-7.895h1.995v1.226c0.499-0.812,1.326-1.34,2.423-1.34v2.096h-0.528
			c-1.182,0-1.895,0.455-1.895,1.98V72.334z"/>
		<path fill="#454545" d="M41.109,62.331c0-0.655,0.513-1.169,1.226-1.169c0.698,0,1.226,0.514,1.226,1.169
			s-0.528,1.168-1.226,1.168C41.623,63.499,41.109,62.986,41.109,62.331z M41.323,64.439h1.995v7.895h-1.995V64.439z"/>
		<path fill="#842069" d="M48.676,62.388h1.996v9.946h-1.996V62.388z"/>
		<path fill="#842069" d="M58.166,67.973c0-1.268-0.698-1.951-1.753-1.951c-1.082,0-1.781,0.684-1.781,1.951v4.361h-1.994v-7.895
			h1.994v0.983c0.514-0.67,1.367-1.098,2.38-1.098c1.839,0,3.148,1.196,3.148,3.378v4.631h-1.994V67.973z"/>
		<path fill="#842069" d="M65.163,64.312c1.039,0,2.037,0.484,2.578,1.226v-3.748h2.024v10.545h-2.024v-1.169
			c-0.47,0.727-1.353,1.297-2.593,1.297c-2.009,0-3.605-1.64-3.605-4.104C61.543,65.894,63.14,64.312,65.163,64.312z M65.661,66.063
			c-1.068,0-2.08,0.799-2.08,2.295s1.012,2.351,2.08,2.351c1.099,0,2.094-0.825,2.094-2.321
			C67.755,66.891,66.76,66.063,65.661,66.063z"/>
		<path fill="#842069" d="M71.504,62.331c0-0.655,0.513-1.169,1.226-1.169c0.698,0,1.227,0.514,1.227,1.169
			s-0.528,1.168-1.227,1.168C72.017,63.499,71.504,62.986,71.504,62.331z M71.717,64.439h1.996v7.895h-1.996V64.439z"/>
		<path fill="#842069" d="M78.771,64.312c1.268,0,2.139,0.599,2.607,1.253v-1.125h2.01v7.895h-2.01v-1.155
			c-0.469,0.685-1.366,1.283-2.621,1.283c-1.995,0-3.59-1.64-3.59-4.104C75.167,65.894,76.762,64.312,78.771,64.312z M79.284,66.063
			c-1.068,0-2.08,0.799-2.08,2.295s1.012,2.351,2.08,2.351c1.097,0,2.094-0.825,2.094-2.321
			C81.378,66.891,80.381,66.063,79.284,66.063z"/>
		<path fill="#454545" d="M20.872,82.208h-3.735v3.709h-1.749v-8.718h1.749v3.585h3.735v-3.585h1.749v8.718h-1.749V82.208z"/>
		<path fill="#454545" d="M27.053,78.887c1.111,0,1.873,0.523,2.286,1.098v-0.985H31.1v6.918h-1.761v-1.012
			c-0.413,0.6-1.199,1.124-2.298,1.124c-1.748,0-3.147-1.436-3.147-3.597S25.292,78.887,27.053,78.887z M27.502,80.421
			c-0.937,0-1.823,0.7-1.823,2.012s0.887,2.06,1.823,2.06c0.962,0,1.836-0.724,1.836-2.034
			C29.339,81.146,28.464,80.421,27.502,80.421z"/>
		<path fill="#454545" d="M35.783,78.887c1.723,0,2.885,0.898,3.259,2.447h-1.886c-0.199-0.588-0.662-0.962-1.386-0.962
			c-0.975,0-1.624,0.737-1.624,2.086c0,1.348,0.649,2.071,1.624,2.071c0.724,0,1.174-0.323,1.386-0.948h1.886
			c-0.374,1.475-1.536,2.448-3.259,2.448c-1.999,0-3.422-1.398-3.422-3.571C32.361,80.284,33.785,78.887,35.783,78.887z"/>
		<path fill="#454545" d="M40.328,76.676h1.749v5.257l2.323-2.934h2.272l-3.046,3.472l3.072,3.446h-2.272l-2.349-2.948v2.948h-1.749
			V76.676z"/>
		<path fill="#454545" d="M50.332,78.887c1.111,0,1.874,0.523,2.286,1.098v-0.985h1.76v6.918h-1.76v-1.012
			c-0.412,0.6-1.197,1.124-2.298,1.124c-1.748,0-3.147-1.436-3.147-3.597S48.571,78.887,50.332,78.887z M50.783,80.421
			c-0.938,0-1.825,0.7-1.825,2.012s0.887,2.06,1.825,2.06c0.96,0,1.834-0.724,1.834-2.034
			C52.617,81.146,51.743,80.421,50.783,80.421z"/>
		<path fill="#454545" d="M56.363,80.435h-0.824v-1.436h0.824v-1.712h1.761v1.712h1.548v1.436h-1.548v3.347
			c0,0.462,0.188,0.662,0.737,0.662h0.811v1.474h-1.098c-1.325,0-2.211-0.562-2.211-2.148V80.435z"/>
		<path fill="#454545" d="M60.934,76.676h1.749v3.184c0.448-0.586,1.224-0.962,2.147-0.962c1.562,0,2.697,1.049,2.697,2.961v4.059
			h-1.748v-3.822c0-1.111-0.611-1.711-1.536-1.711c-0.949,0-1.561,0.6-1.561,1.711v3.822h-1.749V76.676z"/>
		<path fill="#454545" d="M72.262,86.029c-1.998,0-3.511-1.398-3.511-3.571c0-2.187,1.561-3.571,3.561-3.571
			c1.998,0,3.56,1.385,3.56,3.571C75.871,84.631,74.272,86.029,72.262,86.029z M72.262,84.506c0.923,0,1.811-0.675,1.811-2.048
			c0-1.388-0.861-2.049-1.786-2.049s-1.761,0.661-1.761,2.049C70.525,83.831,71.323,84.506,72.262,84.506z"/>
		<path fill="#454545" d="M82.002,82.095c0-1.111-0.611-1.711-1.536-1.711c-0.95,0-1.561,0.6-1.561,1.711v3.822h-1.749v-6.918h1.749
			v0.86c0.449-0.586,1.198-0.962,2.086-0.962c1.609,0,2.759,1.049,2.759,2.961v4.059h-1.748V82.095z"/>
	</g>
</g>
<g>
	<g>
		<g>
			<g>
				<path fill="#78B833" d="M75.331,1.274c0,0-1.942,1.886-4.045,2.646c-15.565,5.63-9.001,16.603-8.788,16.639
					c0,0,0.874-1.52,2.054-2.387c7.481-5.501,9.002-11.832,9.002-11.832s-1.678,7.62-8.335,12.359
					c-1.471,1.047-2.465,3.623-2.887,6.198c0,0,1.042-0.42,1.488-0.535c0.176-1.141,0.542-2.232,1.157-3.208
					c9.306,1.108,12.353-6.389,12.751-9.002C78.667,5.979,75.331,1.274,75.331,1.274z"/>
			</g>
		</g>
	</g>
	<path fill-rule="evenodd" clip-rule="evenodd" fill="#792C5E" d="M55.492,44.451c0,2.83,0.002,5.661-0.004,8.49
		c0,0.185,0.089,0.427-0.123,0.532c-0.179,0.09-0.332-0.079-0.484-0.174c-1.098-0.688-2.265-1.242-3.531-1.51
		c-1.131-0.238-2.274-0.188-3.422,0.052c-1.533,0.319-3.008,0.843-4.537,1.176c-1.877,0.409-3.774,0.662-5.681,0.597
		c-2.264-0.079-4.466-0.562-6.537-1.545c-1.396-0.663-2.688-1.478-3.874-2.471c-0.276-0.232-0.744-0.403-0.879-0.648
		c-0.254-0.461-0.643-0.763-0.959-1.141c-1.081-1.293-2.015-2.68-2.705-4.22c-0.538-1.202-0.95-2.445-1.19-3.746
		c-0.23-1.242-0.436-2.487-0.371-3.748c0.109-2.122,0.492-4.188,1.331-6.167c0.66-1.558,1.507-2.992,2.571-4.297
		c1.788-2.195,3.995-3.83,6.611-4.92c1.62-0.675,3.288-1.11,5.045-1.27c0.719-0.066,1.437-0.146,2.15-0.101
		c2.063,0.135,4.074,0.511,5.999,1.331c1.362,0.58,2.626,1.306,3.804,2.19c1.914,1.434,3.427,3.216,4.592,5.297
		c0.858,1.533,1.461,3.158,1.806,4.884c0.277,1.39,0.4,2.79,0.393,4.206C55.485,39.649,55.492,42.05,55.492,44.451z M38.333,26.17
		c-5.722,0.055-10.294,4.545-10.292,10.309c0.002,5.742,4.529,10.298,10.299,10.298c5.748,0,10.295-4.572,10.298-10.306
		C48.641,30.733,44.042,26.21,38.333,26.17z"/>
	<path fill-rule="evenodd" clip-rule="evenodd" fill="#792C5E" d="M67.733,49.829c0,2.096-1.699,3.795-3.797,3.795l0,0
		c-2.096,0-3.795-1.699-3.795-3.795v-24.37c0-2.095,1.699-3.794,3.795-3.794l0,0c2.098,0,3.797,1.699,3.797,3.794V49.829z"/>
</g>
<g>
	<g>
		<path fill="#454545" d="M24.422,92.69c0-0.524-0.388-0.841-0.864-0.841c-0.51,0-0.913,0.316-0.913,0.816h-0.784
			c0-0.937,0.703-1.535,1.697-1.535c0.96,0,1.624,0.566,1.624,1.446c0,0.599-0.323,1.066-0.945,1.236v0.016
			c0.161,0.032,0.299,0.09,0.42,0.162h1.656v-2.787h4.265v0.71h-0.986v5.268h-0.849v-5.268h-1.591v5.268h-0.84v-2.487l-1.116-0.009
			c0.057,0.162,0.082,0.331,0.082,0.493c0,0.944-0.663,1.56-1.647,1.56c-1.083,0-1.826-0.672-1.826-1.657h0.792
			c0,0.534,0.396,0.93,0.977,0.93c0.574,0,0.929-0.372,0.929-0.913c0-0.137-0.024-0.282-0.088-0.412h-0.017v-0.032
			c-0.145-0.267-0.428-0.469-0.913-0.469h-0.332v-0.687h0.332C24.107,93.498,24.422,93.103,24.422,92.69z"/>
		<path fill="#454545" d="M38.326,97.182v-3.086h-1.357v0.55c0,1.098-0.549,1.729-1.542,1.729c-0.946,0-1.576-0.599-1.576-1.495
			c0-0.291,0.065-0.541,0.187-0.751h-0.832c-0.897,0-1.486,0.38-1.486,1.163c0,0.753,0.468,1.204,1.365,1.204h0.169v0.671h-0.291
			c-1.22,0-2.1-0.606-2.1-1.891c0-1.31,0.993-1.875,2.302-1.875h3.013v-1.486h-6.034v-0.71H40.16v0.71h-0.985v5.268H38.326z
			 M36.177,94.694v-0.599h-0.662c-0.509,0-0.873,0.299-0.873,0.783c0,0.478,0.332,0.776,0.769,0.776
			C35.903,95.655,36.177,95.291,36.177,94.694z M38.326,91.914h-1.357V93.4h1.357V91.914z"/>
		<path fill="#454545" d="M41.608,97.182H40.76v-5.268h-0.985v-0.71h0.985c0.041-1.479,1.195-2.181,3.481-2.181
			c2.351,0,3.554,0.815,3.554,2.27v0.138h-0.831v-0.113c0-1.131-1.01-1.6-2.731-1.6c-1.672,0-2.592,0.371-2.633,1.486h0.994v0.71
			h-0.986V97.182z"/>
		<path fill="#454545" d="M42.207,91.204h6.841v0.71h-0.985v5.268h-0.849v-3.344h-1.405c0.21,0.241,0.363,0.573,0.363,1.01
			c0,0.953-0.71,1.502-1.607,1.502c-0.938,0-1.689-0.613-1.689-1.607c0-1.042,0.775-1.615,1.761-1.615h2.577v-1.213h-5.008V91.204z
			 M45.494,94.733c0-0.517-0.38-0.896-0.912-0.896c-0.55,0-0.938,0.371-0.938,0.904c0,0.525,0.379,0.888,0.938,0.888
			C45.114,95.63,45.494,95.259,45.494,94.733z"/>
		<path fill="#454545" d="M49.421,94.968c0-0.968,0.72-1.478,1.64-1.478h0.687v-0.719c0-0.549-0.194-0.913-0.654-0.913
			c-0.389,0-0.655,0.282-0.655,0.75c0,0.091,0.008,0.188,0.034,0.293h-0.849c-0.016-0.098-0.032-0.219-0.032-0.324
			c0-0.848,0.526-1.446,1.471-1.446c1.082,0,1.478,0.751,1.478,1.786v0.573h1.228v-2.286h1.843v0.71h-0.994v5.268h-0.849v-2.997
			h-1.228v0.558c0,1.091-0.551,1.721-1.543,1.721C50.052,96.463,49.421,95.865,49.421,94.968z M51.748,94.783v-0.599h-0.663
			c-0.516,0-0.871,0.29-0.871,0.783c0,0.478,0.33,0.775,0.774,0.775C51.473,95.743,51.748,95.38,51.748,94.783z"/>
		<path fill="#454545" d="M53.832,90.631c0-0.881,0.38-1.616,1.422-1.616c0.906,0,1.406,0.582,1.374,1.446h-0.744
			c0.018-0.443-0.227-0.736-0.612-0.736c-0.445,0-0.647,0.308-0.647,0.898v0.728h-0.792V90.631z"/>
		<path fill="#454545" d="M55.222,91.204h4.702v0.71h-0.889v0.672c0,1.194-0.54,1.954-1.857,1.954H56.87v1.01
			c0,0.566,0.25,0.978,0.8,0.978c0.492,0,0.792-0.363,0.792-0.904v-0.178h0.815v0.152c0,1.002-0.59,1.656-1.59,1.656
			c-1.101,0-1.65-0.742-1.65-1.744v-1.664h0.842c0.903,0,1.316-0.436,1.316-1.26v-0.672h-2.974V91.204z"/>
		<path fill="#454545" d="M65.459,95.704c-0.235,0.444-0.703,0.768-1.397,0.768c-1.019,0-1.704-0.744-1.704-1.884
			c0-1.122,0.702-1.856,1.736-1.856c0.678,0,1.13,0.315,1.365,0.742v-1.56h-3.821v-0.71h8.345v0.71h-3.709v1.576
			c0.228-0.443,0.663-0.759,1.325-0.759c1.003,0,1.674,0.775,1.674,1.842c0,1.17-0.72,1.849-1.682,1.849
			c-0.186,0-0.354-0.015-0.516-0.056v-0.671c0.088,0.024,0.2,0.032,0.297,0.032c0.591,0,1.044-0.412,1.044-1.14
			c0-0.677-0.461-1.13-1.067-1.13c-0.76,0-1.075,0.613-1.075,1.204v2.52h-0.814V95.704z M65.459,94.605
			c0-0.559-0.348-1.147-1.124-1.147c-0.621,0-1.121,0.436-1.121,1.139c0,0.728,0.477,1.163,1.121,1.163
			C65.104,95.76,65.459,95.139,65.459,94.605z"/>
		<path fill="#454545" d="M64.354,98.337c0-0.815,0.573-1.406,1.591-1.406c0.064,0,0.268,0,0.331,0.01v0.581h-0.267
			c-0.548,0-0.839,0.347-0.839,0.783c0,0.557,0.428,0.759,0.92,0.759c0.251,0,0.484-0.048,0.613-0.089v0.662
			c-0.209,0.073-0.491,0.113-0.742,0.113C65.161,99.75,64.354,99.363,64.354,98.337z"/>
		<path fill="#454545" d="M71.438,97.182H70.59v-5.268h-0.985v-0.71h0.985c0.041-1.479,1.195-2.165,3.062-2.165
			c1.898,0,3.095,0.792,3.095,2.238v0.137h-0.832v-0.113c0-1.138-0.995-1.566-2.263-1.566c-1.243,0-2.181,0.34-2.223,1.47h0.995
			v0.71h-0.986V97.182z"/>
		<path fill="#454545" d="M72.037,91.204h5.799v0.71h-0.984v5.268H76.02v-2.084c-0.26,0.396-0.703,0.639-1.342,0.639
			c-1.195,0-1.802-0.849-1.802-2.085v-1.737h-0.839V91.204z M75.937,94.29l-2.245-1.736v1.122c0,0.808,0.364,1.341,1.156,1.341
			C75.413,95.017,75.792,94.71,75.937,94.29z M76.02,91.914h-2.311L76.02,93.7V91.914z"/>
	</g>
</g>
</svg>
